<mxfile host="app.diagrams.net" agent="Mozilla/5.0 (X11; Linux x86_64) AppleWebKit/537.36 (KHTML, like Gecko) Chrome/130.0.0.0 Safari/537.36" version="25.0.3">
  <diagram name="Page-1" id="R38DFTL70YxCnxAKMmK_">
    <mxGraphModel dx="1434" dy="751" grid="1" gridSize="10" guides="1" tooltips="1" connect="1" arrows="1" fold="1" page="1" pageScale="1" pageWidth="850" pageHeight="1100" math="0" shadow="0">
      <root>
        <mxCell id="0" />
        <mxCell id="1" parent="0" />
        <mxCell id="9mEMTc3M4Qk1z0OzVY7i-1" value="" style="fontColor=#0066CC;verticalAlign=top;verticalLabelPosition=bottom;labelPosition=center;align=center;html=1;outlineConnect=0;fillColor=#CCCCCC;strokeColor=#6881B3;gradientColor=none;gradientDirection=north;strokeWidth=2;shape=mxgraph.networks.comm_link;" parent="1" vertex="1">
          <mxGeometry x="390" y="80" width="30" height="100" as="geometry" />
        </mxCell>
        <mxCell id="9mEMTc3M4Qk1z0OzVY7i-2" value="" style="html=1;outlineConnect=0;fillColor=#CCCCCC;strokeColor=#6881B3;gradientColor=none;gradientDirection=north;strokeWidth=2;shape=mxgraph.networks.cloud;fontColor=#ffffff;" parent="1" vertex="1">
          <mxGeometry x="360" y="220" width="90" height="50" as="geometry" />
        </mxCell>
        <mxCell id="9mEMTc3M4Qk1z0OzVY7i-4" value="" style="fontColor=#0066CC;verticalAlign=top;verticalLabelPosition=bottom;labelPosition=center;align=center;html=1;outlineConnect=0;fillColor=#CCCCCC;strokeColor=#6881B3;gradientColor=none;gradientDirection=north;strokeWidth=2;shape=mxgraph.networks.comm_link;" parent="1" vertex="1">
          <mxGeometry x="390" y="300" width="30" height="100" as="geometry" />
        </mxCell>
        <mxCell id="9mEMTc3M4Qk1z0OzVY7i-9" style="edgeStyle=orthogonalEdgeStyle;rounded=0;orthogonalLoop=1;jettySize=auto;html=1;exitX=1;exitY=0.5;exitDx=0;exitDy=0;exitPerimeter=0;dashed=1;strokeColor=#ff0000;" parent="1" source="9mEMTc3M4Qk1z0OzVY7i-5" target="9mEMTc3M4Qk1z0OzVY7i-7" edge="1">
          <mxGeometry relative="1" as="geometry" />
        </mxCell>
        <mxCell id="9mEMTc3M4Qk1z0OzVY7i-5" value="ROUTER&lt;br&gt;10.10.10.16" style="fontColor=#0066CC;verticalAlign=top;verticalLabelPosition=bottom;labelPosition=center;align=center;html=1;outlineConnect=0;fillColor=#CCCCCC;strokeColor=#6881B3;gradientColor=none;gradientDirection=north;strokeWidth=2;shape=mxgraph.networks.router;" parent="1" vertex="1">
          <mxGeometry x="360" y="430" width="100" height="30" as="geometry" />
        </mxCell>
        <mxCell id="9mEMTc3M4Qk1z0OzVY7i-30" style="edgeStyle=orthogonalEdgeStyle;rounded=0;orthogonalLoop=1;jettySize=auto;html=1;" parent="1" source="9mEMTc3M4Qk1z0OzVY7i-6" target="9mEMTc3M4Qk1z0OzVY7i-26" edge="1">
          <mxGeometry relative="1" as="geometry" />
        </mxCell>
        <mxCell id="9mEMTc3M4Qk1z0OzVY7i-6" value="&lt;div&gt;Priimary LB&lt;/div&gt;&lt;div&gt;10.10.10.2&lt;/div&gt;" style="fontColor=#0066CC;verticalAlign=top;verticalLabelPosition=bottom;labelPosition=center;align=center;html=1;outlineConnect=0;fillColor=#CCCCCC;strokeColor=#6881B3;gradientColor=none;gradientDirection=north;strokeWidth=2;shape=mxgraph.networks.load_balancer;" parent="1" vertex="1">
          <mxGeometry x="190" y="560" width="100" height="30" as="geometry" />
        </mxCell>
        <mxCell id="9mEMTc3M4Qk1z0OzVY7i-31" style="edgeStyle=orthogonalEdgeStyle;rounded=0;orthogonalLoop=1;jettySize=auto;html=1;entryX=0.5;entryY=0;entryDx=0;entryDy=0;dashed=1;strokeColor=#FF0000;" parent="1" source="9mEMTc3M4Qk1z0OzVY7i-7" target="9mEMTc3M4Qk1z0OzVY7i-26" edge="1">
          <mxGeometry relative="1" as="geometry">
            <mxPoint x="550" y="670" as="targetPoint" />
          </mxGeometry>
        </mxCell>
        <mxCell id="9mEMTc3M4Qk1z0OzVY7i-7" value="&lt;div&gt;Secondary LB&lt;/div&gt;&lt;div&gt;10.20.10.2&lt;/div&gt;" style="fontColor=#0066CC;verticalAlign=top;verticalLabelPosition=bottom;labelPosition=center;align=center;html=1;outlineConnect=0;fillColor=#CCCCCC;strokeColor=#6881B3;gradientColor=none;gradientDirection=north;strokeWidth=2;shape=mxgraph.networks.load_balancer;" parent="1" vertex="1">
          <mxGeometry x="530" y="560" width="100" height="30" as="geometry" />
        </mxCell>
        <mxCell id="9mEMTc3M4Qk1z0OzVY7i-8" style="edgeStyle=orthogonalEdgeStyle;rounded=0;orthogonalLoop=1;jettySize=auto;html=1;" parent="1" source="9mEMTc3M4Qk1z0OzVY7i-5" edge="1">
          <mxGeometry relative="1" as="geometry">
            <mxPoint x="240" y="560" as="targetPoint" />
          </mxGeometry>
        </mxCell>
        <mxCell id="9mEMTc3M4Qk1z0OzVY7i-26" value="Backend" style="swimlane;" parent="1" vertex="1">
          <mxGeometry x="95" y="710" width="630" height="150" as="geometry" />
        </mxCell>
        <mxCell id="9mEMTc3M4Qk1z0OzVY7i-16" value="GetriPay Server 1" style="swimlane;fontStyle=0;childLayout=stackLayout;horizontal=1;startSize=26;fillColor=#f8cecc;horizontalStack=0;resizeParent=1;resizeParentMax=0;resizeLast=0;collapsible=1;marginBottom=0;html=1;strokeColor=#b85450;" parent="9mEMTc3M4Qk1z0OzVY7i-26" vertex="1">
          <mxGeometry x="10" y="40" width="140" height="78" as="geometry" />
        </mxCell>
        <mxCell id="9mEMTc3M4Qk1z0OzVY7i-17" value="10.10.10.199" style="text;strokeColor=none;fillColor=none;align=left;verticalAlign=top;spacingLeft=4;spacingRight=4;overflow=hidden;rotatable=0;points=[[0,0.5],[1,0.5]];portConstraint=eastwest;whiteSpace=wrap;html=1;" parent="9mEMTc3M4Qk1z0OzVY7i-16" vertex="1">
          <mxGeometry y="26" width="140" height="26" as="geometry" />
        </mxCell>
        <mxCell id="9mEMTc3M4Qk1z0OzVY7i-18" value="10.20.10.199" style="text;strokeColor=none;fillColor=none;align=left;verticalAlign=top;spacingLeft=4;spacingRight=4;overflow=hidden;rotatable=0;points=[[0,0.5],[1,0.5]];portConstraint=eastwest;whiteSpace=wrap;html=1;" parent="9mEMTc3M4Qk1z0OzVY7i-16" vertex="1">
          <mxGeometry y="52" width="140" height="26" as="geometry" />
        </mxCell>
        <mxCell id="9mEMTc3M4Qk1z0OzVY7i-20" value="GetriPay Server 2" style="swimlane;fontStyle=0;childLayout=stackLayout;horizontal=1;startSize=26;fillColor=#dae8fc;horizontalStack=0;resizeParent=1;resizeParentMax=0;resizeLast=0;collapsible=1;marginBottom=0;html=1;strokeColor=#6c8ebf;" parent="9mEMTc3M4Qk1z0OzVY7i-26" vertex="1">
          <mxGeometry x="160" y="40" width="140" height="78" as="geometry" />
        </mxCell>
        <mxCell id="9mEMTc3M4Qk1z0OzVY7i-21" value="10.10.10.207" style="text;strokeColor=none;fillColor=none;align=left;verticalAlign=top;spacingLeft=4;spacingRight=4;overflow=hidden;rotatable=0;points=[[0,0.5],[1,0.5]];portConstraint=eastwest;whiteSpace=wrap;html=1;" parent="9mEMTc3M4Qk1z0OzVY7i-20" vertex="1">
          <mxGeometry y="26" width="140" height="26" as="geometry" />
        </mxCell>
        <mxCell id="9mEMTc3M4Qk1z0OzVY7i-22" value="10.20.10.207" style="text;strokeColor=none;fillColor=none;align=left;verticalAlign=top;spacingLeft=4;spacingRight=4;overflow=hidden;rotatable=0;points=[[0,0.5],[1,0.5]];portConstraint=eastwest;whiteSpace=wrap;html=1;" parent="9mEMTc3M4Qk1z0OzVY7i-20" vertex="1">
          <mxGeometry y="52" width="140" height="26" as="geometry" />
        </mxCell>
        <mxCell id="9mEMTc3M4Qk1z0OzVY7i-23" value="Mysql DB" style="swimlane;fontStyle=0;childLayout=stackLayout;horizontal=1;startSize=26;fillColor=#d5e8d4;horizontalStack=0;resizeParent=1;resizeParentMax=0;resizeLast=0;collapsible=1;marginBottom=0;html=1;strokeColor=#82b366;" parent="9mEMTc3M4Qk1z0OzVY7i-26" vertex="1">
          <mxGeometry x="330" y="40" width="140" height="78" as="geometry" />
        </mxCell>
        <mxCell id="9mEMTc3M4Qk1z0OzVY7i-25" value="&lt;div&gt;10.20.10.215&lt;/div&gt;" style="text;strokeColor=none;fillColor=none;align=left;verticalAlign=top;spacingLeft=4;spacingRight=4;overflow=hidden;rotatable=0;points=[[0,0.5],[1,0.5]];portConstraint=eastwest;whiteSpace=wrap;html=1;" parent="9mEMTc3M4Qk1z0OzVY7i-23" vertex="1">
          <mxGeometry y="26" width="140" height="26" as="geometry" />
        </mxCell>
        <mxCell id="9mEMTc3M4Qk1z0OzVY7i-24" value="10.10.10.215" style="text;strokeColor=none;fillColor=none;align=left;verticalAlign=top;spacingLeft=4;spacingRight=4;overflow=hidden;rotatable=0;points=[[0,0.5],[1,0.5]];portConstraint=eastwest;whiteSpace=wrap;html=1;" parent="9mEMTc3M4Qk1z0OzVY7i-23" vertex="1">
          <mxGeometry y="52" width="140" height="26" as="geometry" />
        </mxCell>
        <mxCell id="9mEMTc3M4Qk1z0OzVY7i-27" value="Redis DB" style="swimlane;fontStyle=0;childLayout=stackLayout;horizontal=1;startSize=26;fillColor=#ffe6cc;horizontalStack=0;resizeParent=1;resizeParentMax=0;resizeLast=0;collapsible=1;marginBottom=0;html=1;strokeColor=#d79b00;" parent="9mEMTc3M4Qk1z0OzVY7i-26" vertex="1">
          <mxGeometry x="480" y="40" width="140" height="78" as="geometry" />
        </mxCell>
        <mxCell id="9mEMTc3M4Qk1z0OzVY7i-28" value="&lt;div&gt;10.20.10.215&lt;/div&gt;" style="text;strokeColor=none;fillColor=none;align=left;verticalAlign=top;spacingLeft=4;spacingRight=4;overflow=hidden;rotatable=0;points=[[0,0.5],[1,0.5]];portConstraint=eastwest;whiteSpace=wrap;html=1;" parent="9mEMTc3M4Qk1z0OzVY7i-27" vertex="1">
          <mxGeometry y="26" width="140" height="26" as="geometry" />
        </mxCell>
        <mxCell id="9mEMTc3M4Qk1z0OzVY7i-29" value="10.10.10.215" style="text;strokeColor=none;fillColor=none;align=left;verticalAlign=top;spacingLeft=4;spacingRight=4;overflow=hidden;rotatable=0;points=[[0,0.5],[1,0.5]];portConstraint=eastwest;whiteSpace=wrap;html=1;" parent="9mEMTc3M4Qk1z0OzVY7i-27" vertex="1">
          <mxGeometry y="52" width="140" height="26" as="geometry" />
        </mxCell>
        <mxCell id="RCUtGWHDxDWGZO6-PBa--1" value="" style="fontColor=#0066CC;verticalAlign=top;verticalLabelPosition=bottom;labelPosition=center;align=center;html=1;outlineConnect=0;fillColor=#CCCCCC;strokeColor=#6881B3;gradientColor=none;gradientDirection=north;strokeWidth=2;shape=mxgraph.networks.laptop;" parent="1" vertex="1">
          <mxGeometry x="355" y="10" width="100" height="55" as="geometry" />
        </mxCell>
        <mxCell id="RCUtGWHDxDWGZO6-PBa--2" value="High Availability" style="text;html=1;align=center;verticalAlign=middle;whiteSpace=wrap;rounded=0;" parent="1" vertex="1">
          <mxGeometry x="380" y="540" width="60" height="30" as="geometry" />
        </mxCell>
        <mxCell id="RCUtGWHDxDWGZO6-PBa--3" value="Load Balancing - Least Time Algorithm" style="text;html=1;align=center;verticalAlign=middle;whiteSpace=wrap;rounded=0;" parent="1" vertex="1">
          <mxGeometry x="375" y="660" width="60" height="30" as="geometry" />
        </mxCell>
        <mxCell id="RCUtGWHDxDWGZO6-PBa--4" value="&lt;h1 style=&quot;margin-top: 0px;&quot;&gt;&lt;span style=&quot;background-color: initial;&quot;&gt;Benefits&lt;/span&gt;&lt;/h1&gt;&lt;h1 style=&quot;margin-top: 0px;&quot;&gt;&lt;span style=&quot;background-color: initial; font-size: 12px; font-weight: normal;&quot;&gt;- Allows us add more servers and also decomission servers with affecting availability.&lt;/span&gt;&lt;/h1&gt;&lt;div&gt;&lt;span style=&quot;background-color: initial; font-size: 12px; font-weight: normal;&quot;&gt;- HAProxy for loadbalacing has a lover memory imprint&amp;nbsp; anc can support high traffic&lt;/span&gt;&lt;/div&gt;" style="text;html=1;whiteSpace=wrap;overflow=hidden;rounded=0;" parent="1" vertex="1">
          <mxGeometry x="80" y="900" width="470" height="120" as="geometry" />
        </mxCell>
        <mxCell id="RCUtGWHDxDWGZO6-PBa--5" value="Network Monitor" style="fontColor=#0066CC;verticalAlign=top;verticalLabelPosition=bottom;labelPosition=center;align=center;html=1;outlineConnect=0;fillColor=#CCCCCC;strokeColor=#6881B3;gradientColor=none;gradientDirection=north;strokeWidth=2;shape=mxgraph.networks.nas_filer;" parent="1" vertex="1">
          <mxGeometry x="690" y="560" width="100" height="35" as="geometry" />
        </mxCell>
      </root>
    </mxGraphModel>
  </diagram>
</mxfile>
